<svg width="150" height="30" viewBox="0 0 150 30" fill="none" xmlns="http://www.w3.org/2000/svg">
<path d="M13.2441 3.21957C14.0021 1.82969 15.9979 1.82969 16.7559 3.21957L19.2183 7.73483C19.506 8.26228 20.0155 8.63248 20.6061 8.74306L25.6613 9.68973C27.2174 9.98113 27.8341 11.8792 26.7464 13.0296L23.2131 16.7668C22.8004 17.2034 22.6058 17.8024 22.6831 18.3982L23.3449 23.4985C23.5486 25.0685 21.934 26.2415 20.5038 25.5626L15.8577 23.3571C15.3149 23.0995 14.6851 23.0995 14.1423 23.3571L9.49616 25.5626C8.06597 26.2415 6.4514 25.0685 6.65512 23.4985L7.31693 18.3982C7.39424 17.8024 7.19962 17.2034 6.78687 16.7668L3.25356 13.0296C2.16594 11.8792 2.78264 9.98113 4.33874 9.68973L9.39394 8.74306C9.98447 8.63248 10.494 8.26228 10.7817 7.73483L13.2441 3.21957Z" fill="#FFBC3A"/>
<path d="M43.2441 3.21957C44.0021 1.82969 45.9979 1.82969 46.7559 3.21957L49.2183 7.73483C49.506 8.26228 50.0155 8.63248 50.6061 8.74306L55.6613 9.68973C57.2174 9.98113 57.8341 11.8792 56.7464 13.0296L53.2131 16.7668C52.8004 17.2034 52.6058 17.8024 52.6831 18.3982L53.3449 23.4985C53.5486 25.0685 51.934 26.2415 50.5038 25.5626L45.8577 23.3571C45.3149 23.0995 44.6851 23.0995 44.1423 23.3571L39.4962 25.5626C38.066 26.2415 36.4514 25.0685 36.6551 23.4985L37.3169 18.3982C37.3942 17.8024 37.1996 17.2034 36.7869 16.7668L33.2536 13.0296C32.1659 11.8792 32.7826 9.98113 34.3387 9.68973L39.3939 8.74306C39.9845 8.63248 40.494 8.26228 40.7817 7.73483L43.2441 3.21957Z" fill="#FFBC3A"/>
<path d="M73.2441 3.21957C74.0021 1.82969 75.9979 1.82969 76.7559 3.21957L79.2183 7.73483C79.506 8.26228 80.0155 8.63248 80.6061 8.74306L85.6613 9.68973C87.2174 9.98113 87.8341 11.8792 86.7464 13.0296L83.2131 16.7668C82.8004 17.2034 82.6058 17.8024 82.6831 18.3982L83.3449 23.4985C83.5486 25.0685 81.934 26.2415 80.5038 25.5626L75.8577 23.3571C75.3149 23.0995 74.6851 23.0995 74.1423 23.3571L69.4962 25.5626C68.066 26.2415 66.4514 25.0685 66.6551 23.4985L67.3169 18.3982C67.3942 17.8024 67.1996 17.2034 66.7869 16.7668L63.2536 13.0296C62.1659 11.8792 62.7826 9.98113 64.3387 9.68973L69.3939 8.74306C69.9845 8.63248 70.494 8.26228 70.7817 7.73483L73.2441 3.21957Z" fill="#FFBC3A"/>
<path d="M103.244 3.21957C104.002 1.82969 105.998 1.82969 106.756 3.21957L109.218 7.73483C109.506 8.26228 110.016 8.63248 110.606 8.74306L115.661 9.68973C117.217 9.98113 117.834 11.8792 116.746 13.0296L113.213 16.7668C112.8 17.2034 112.606 17.8024 112.683 18.3982L113.345 23.4985C113.549 25.0685 111.934 26.2415 110.504 25.5626L105.858 23.3571C105.315 23.0995 104.685 23.0995 104.142 23.3571L99.4962 25.5626C98.066 26.2415 96.4514 25.0685 96.6551 23.4985L97.3169 18.3982C97.3942 17.8024 97.1996 17.2034 96.7869 16.7668L93.2536 13.0296C92.1659 11.8792 92.7826 9.98113 94.3387 9.68973L99.3939 8.74306C99.9845 8.63248 100.494 8.26228 100.782 7.73483L103.244 3.21957Z" fill="#FFBC3A"/>
<path d="M133.244 3.21957C134.002 1.82969 135.998 1.82969 136.756 3.21957L139.218 7.73483C139.506 8.26228 140.016 8.63248 140.606 8.74306L145.661 9.68973C147.217 9.98113 147.834 11.8792 146.746 13.0296L143.213 16.7668C142.8 17.2034 142.606 17.8024 142.683 18.3982L143.345 23.4985C143.549 25.0685 141.934 26.2415 140.504 25.5626L135.858 23.3571C135.315 23.0995 134.685 23.0995 134.142 23.3571L129.496 25.5626C128.066 26.2415 126.451 25.0685 126.655 23.4985L127.317 18.3982C127.394 17.8024 127.2 17.2034 126.787 16.7668L123.254 13.0296C122.166 11.8792 122.783 9.98113 124.339 9.68973L129.394 8.74306C129.984 8.63248 130.494 8.26228 130.782 7.73483L133.244 3.21957Z" fill="#E9ECEA"/>
</svg>
