<svg width="36" height="36" viewBox="0 0 36 36" fill="none" xmlns="http://www.w3.org/2000/svg">
<path d="M0.500002 18C0.500001 8.33502 8.33502 0.499999 18 0.499998C27.665 0.499997 35.5 8.33501 35.5 18C35.5 27.665 27.665 35.5 18 35.5C8.33502 35.5 0.500003 27.665 0.500002 18Z" stroke="#A22C32"/>
<path d="M23 18.75C23.4142 18.75 23.75 18.4142 23.75 18C23.75 17.5858 23.4142 17.25 23 17.25V18.75ZM12.4697 17.4697C12.1768 17.7626 12.1768 18.2374 12.4697 18.5303L17.2426 23.3033C17.5355 23.5962 18.0104 23.5962 18.3033 23.3033C18.5962 23.0104 18.5962 22.5355 18.3033 22.2426L14.0607 18L18.3033 13.7574C18.5962 13.4645 18.5962 12.9896 18.3033 12.6967C18.0104 12.4038 17.5355 12.4038 17.2426 12.6967L12.4697 17.4697ZM23 17.25H13V18.75H23V17.25Z" fill="#A22C32"/>
</svg>
