<svg width="26" height="24" viewBox="0 0 26 24" fill="none" xmlns="http://www.w3.org/2000/svg">
<path d="M11.2441 1.21957C12.0021 -0.170308 13.9979 -0.170311 14.7559 1.21957L17.2183 5.73483C17.506 6.26228 18.0155 6.63248 18.6061 6.74306L23.6613 7.68973C25.2174 7.98113 25.8341 9.87917 24.7464 11.0296L21.2131 14.7668C20.8004 15.2034 20.6058 15.8024 20.6831 16.3982L21.3449 21.4985C21.5486 23.0685 19.934 24.2415 18.5038 23.5626L13.8577 21.3571C13.3149 21.0995 12.6851 21.0995 12.1423 21.3571L7.49616 23.5626C6.06597 24.2415 4.4514 23.0685 4.65512 21.4985L5.31693 16.3982C5.39424 15.8024 5.19962 15.2034 4.78687 14.7668L1.25356 11.0296C0.165937 9.87917 0.782645 7.98113 2.33874 7.68973L7.39394 6.74306C7.98447 6.63248 8.49401 6.26228 8.78167 5.73483L11.2441 1.21957Z" fill="#E9ECEA"/>
</svg>
