<svg width="12" height="10" viewBox="0 0 12 10" fill="none" xmlns="http://www.w3.org/2000/svg">
<path d="M12 1.18385C11.5586 1.38454 11.0838 1.52029 10.5859 1.58091C11.0943 1.26857 11.4844 0.774358 11.6686 0.184505C11.1929 0.473877 10.6657 0.683799 10.1052 0.79695C9.65611 0.306505 9.01625 0 8.30772 0C6.94832 0 5.84577 1.13057 5.84577 2.52452C5.84577 2.72239 5.86762 2.915 5.90985 3.09988C3.86377 2.99463 2.04957 1.98965 0.835215 0.461828C0.623336 0.834604 0.50179 1.26857 0.50179 1.73115C0.50179 2.6068 0.936748 3.37984 1.59699 3.83244C1.19361 3.81945 0.813734 3.70592 0.481961 3.51633C0.481777 3.52706 0.481777 3.5378 0.481777 3.54834C0.481777 4.77153 1.33076 5.79177 2.45681 6.02353C2.25044 6.08152 2.0325 6.11221 1.80832 6.11221C1.64932 6.11221 1.49527 6.09658 1.34508 6.06721C1.65831 7.06994 2.56734 7.79987 3.64491 7.82039C2.80217 8.4976 1.74075 8.90106 0.586983 8.90106C0.38869 8.90106 0.192234 8.8892 0 8.86567C1.08896 9.58223 2.38337 10 3.77362 10C8.30203 10 10.7785 6.15325 10.7785 2.81691C10.7785 2.70752 10.7761 2.59851 10.7713 2.49045C11.2527 2.13461 11.6701 1.69011 12 1.18385V1.18385Z" fill="black"/>
</svg>
